<svg xmlns="http://www.w3.org/2000/svg" width="1000" height="320" viewBox="0 0 1000 320">
  <style>
    .box { fill:#f0f8ff; stroke:#333; stroke-width:1.5; rx:6; }
    .small { font: 12px/1.2 'Segoe UI', Roboto, Arial; }
    .title { font: 14px/1.2 'Segoe UI', Roboto, Arial; font-weight:700 }
    .arrow { stroke:#333; stroke-width:1.2; fill:none; marker-end: url(#arrowhead);} 
  </style>
  <defs>
    <marker id="arrowhead" markerWidth="10" markerHeight="7" refX="10" refY="3.5" orient="auto">
      <polygon points="0 0, 10 3.5, 0 7" fill="#333" />
    </marker>
  </defs>

  <!-- Presentation -->
  <rect x="40" y="30" width="240" height="80" class="box" />
  <text x="64" y="55" class="title">Presentation.Api</text>
  <text x="64" y="75" class="small">Controllers, DTOs, Swagger</text>

  <!-- Application -->
  <rect x="340" y="30" width="240" height="80" class="box" />
  <text x="364" y="55" class="title">Application</text>
  <text x="364" y="75" class="small">Services / Use cases</text>

  <!-- Domain -->
  <rect x="640" y="30" width="240" height="80" class="box" />
  <text x="664" y="55" class="title">Domain</text>
  <text x="664" y="75" class="small">Entities, Value Objects</text>

  <!-- InfraStructure.Ioc -->
  <rect x="140" y="150" width="260" height="80" class="box" />
  <text x="160" y="175" class="title">InfraStructure.Ioc</text>
  <text x="160" y="195" class="small">DI / Composition Root</text>

  <!-- InfraStructure.Data -->
  <rect x="560" y="150" width="260" height="80" class="box" />
  <text x="580" y="175" class="title">InfraStructure.Data</text>
  <text x="580" y="195" class="small">EF Core, Repos, UnitOfWork</text>

  <!-- Arrows between layers -->
  <path class="arrow" d="M280 70 L340 70" />
  <path class="arrow" d="M580 70 L640 70" />
  <path class="arrow" d="M460 110 L460 150" />
  <path class="arrow" d="M760 110 L760 150" />
  <path class="arrow" d="M300 190 L300 150" />
  <path class="arrow" d="M700 190 L700 150" />

  <!-- Footer legend -->
  <text x="40" y="270" class="small">Diagrama simplificado das dependências entre camadas do projeto.</text>
</svg>
